<svg width="65" height="65" viewBox="0 0 65 65" fill="none" xmlns="http://www.w3.org/2000/svg">
<mask id="path-1-inside-1_804_115" fill="white">
<path d="M0 6C0 2.68629 2.68629 0 6 0H59C62.3137 0 65 2.68629 65 6V59C65 62.3137 62.3137 65 59 65H6C2.68629 65 0 62.3137 0 59V6Z"/>
</mask>
<path d="M0 6C0 2.68629 2.68629 0 6 0H59C62.3137 0 65 2.68629 65 6V59C65 62.3137 62.3137 65 59 65H6C2.68629 65 0 62.3137 0 59V6Z" fill="#1D1F2D"/>
<path d="M0 0H65H0ZM65 59C65 62.5899 62.0899 65.5 58.5 65.5H6.5C2.91015 65.5 0 62.5899 0 59C0 62.0376 2.68629 64.5 6 64.5H59C62.3137 64.5 65 62.0376 65 59ZM0 65V0V65ZM65 0V65V0Z" fill="#01EFCF" mask="url(#path-1-inside-1_804_115)"/>
</svg>
