<svg width="410" height="250" viewBox="0 0 410 250" fill="none" xmlns="http://www.w3.org/2000/svg">
<path d="M0 16C0 7.16345 7.16344 0 16 0H393.999C402.836 0 409.999 7.16344 409.999 16V234C409.999 242.837 402.836 250 393.999 250H16C7.16345 250 0 242.837 0 234V16Z" fill="#1D1F2D"/>
<path d="M0.204543 16C0.204543 7.27641 7.27641 0.204543 16 0.204543H393.999C402.723 0.204543 409.795 7.27641 409.795 16V234C409.795 242.724 402.723 249.795 393.999 249.795H16C7.27642 249.795 0.204543 242.724 0.204543 234V16Z" stroke="black" stroke-opacity="0.04" stroke-width="0.409086"/>
</svg>
