<svg width="40" height="40" viewBox="0 0 40 40" fill="none" xmlns="http://www.w3.org/2000/svg">
<path fill-rule="evenodd" clip-rule="evenodd" d="M19.9962 0C31.0423 0 39.9963 8.95391 39.9963 20C39.9963 31.0461 31.0423 40 19.9962 40C8.95004 40 -0.00390625 31.0461 -0.00390625 20C-0.00390625 8.95391 8.95004 0 19.9962 0Z" fill="url(#paint0_linear_671_2763)"/>
<path d="M28.9954 12.6266L26.1478 26.982C26.1478 26.982 25.7493 27.9773 24.6548 27.5L17.9626 22.6805L15.3696 21.5664L11.6727 19.9539C11.6727 19.9539 11.0555 19.7344 10.9961 19.257C10.936 18.7789 11.693 18.5203 11.693 18.5203L27.6814 12.2484C27.6814 12.2484 28.9954 11.6711 28.9954 12.6266Z" fill="#FEFEFE"/>
<path d="M20.7896 24.7164L17.8548 27.4383C17.8548 27.4383 17.6368 27.6039 17.397 27.5C17.0446 27.4492 16.011 23.7648 15.3696 21.5664L15.9063 21.225L18.4962 23L20.7896 24.7164Z" fill="#B5D2E5"/>
<path d="M17.397 27.5C17.0157 27.4641 15.5657 22.2086 15.3696 21.5664L25.7626 14.9656C26.3032 14.6375 26.5923 14.8961 26.1267 15.3305C25.8056 15.6305 17.9626 22.6805 17.9626 22.6805L17.397 27.5Z" fill="#D3E7F2"/>
<defs>
<linearGradient id="paint0_linear_671_2763" x1="5.29534" y1="6.43906" x2="37.0423" y2="30.4673" gradientUnits="userSpaceOnUse">
<stop stop-color="#28AAE0"/>
<stop offset="1" stop-color="#23B7EC"/>
</linearGradient>
</defs>
</svg>
