<svg width="20" height="20" viewBox="0 0 20 20" fill="none" xmlns="http://www.w3.org/2000/svg">
    <path d="M9.99609 0C4.47359 0 -0.00390625 4.4775 -0.00390625 10C-0.00390625 15.5225 4.47359 20 9.99609 20C15.5186 20 19.9961 15.5225 19.9961 10C19.9961 4.4775 15.5186 0 9.99609 0ZM10.747 12.3133C9.47628 13.5841 7.41594 13.5841 6.14527 12.3132L4.72841 10.8962C4.24042 10.4081 4.24045 9.6169 4.72847 9.12888C5.21659 8.64076 6.00801 8.64084 6.49603 9.12907L7.02891 9.66219C7.8112 10.4448 9.07988 10.445 9.86234 9.6625L13.5723 5.95252C14.0604 5.46443 14.8518 5.46443 15.3399 5.95252C15.8279 6.4406 15.828 7.23192 15.3399 7.72002L10.747 12.3133Z" fill="#1A2D28"/>
</svg>
